<mxfile host="app.diagrams.net" modified="2022-05-14T19:58:21.178Z" agent="5.0 (Macintosh; Intel Mac OS X 10_15_7) AppleWebKit/605.1.15 (KHTML, like Gecko) Version/15.4 Safari/605.1.15" etag="5JN0WudjQ_UEZY8V3bQR" version="18.0.4" type="github">
  <diagram id="BXfz2hlKpCNt6aij2-pc" name="Page-1">
    <mxGraphModel dx="1950" dy="656" grid="1" gridSize="10" guides="1" tooltips="1" connect="1" arrows="1" fold="1" page="1" pageScale="1" pageWidth="827" pageHeight="1169" background="#283618" math="0" shadow="0">
      <root>
        <mxCell id="0" />
        <mxCell id="1" parent="0" />
        <mxCell id="sbeRR9fG53_bN65uMO-6-1" value="Inicio" style="ellipse;whiteSpace=wrap;html=1;fillColor=#BC6C25;strokeColor=#DDA15E;fontColor=#FEFAE0;" vertex="1" parent="1">
          <mxGeometry x="320" y="40" width="120" height="40" as="geometry" />
        </mxCell>
        <mxCell id="sbeRR9fG53_bN65uMO-6-2" value="" style="endArrow=classic;html=1;rounded=0;exitX=0.5;exitY=1;exitDx=0;exitDy=0;labelBackgroundColor=#283618;strokeColor=#DDA15E;fontColor=#FEFAE0;" edge="1" parent="1" source="sbeRR9fG53_bN65uMO-6-1">
          <mxGeometry width="50" height="50" relative="1" as="geometry">
            <mxPoint x="380" y="280" as="sourcePoint" />
            <mxPoint x="380" y="140" as="targetPoint" />
          </mxGeometry>
        </mxCell>
        <mxCell id="sbeRR9fG53_bN65uMO-6-6" value="" style="shape=card;whiteSpace=wrap;html=1;fillColor=#BC6C25;strokeColor=#DDA15E;fontColor=#FEFAE0;" vertex="1" parent="1">
          <mxGeometry x="310" y="140" width="140" height="70" as="geometry" />
        </mxCell>
        <mxCell id="sbeRR9fG53_bN65uMO-6-8" value="" style="endArrow=classic;html=1;rounded=0;exitX=0.5;exitY=1;exitDx=0;exitDy=0;exitPerimeter=0;labelBackgroundColor=#283618;strokeColor=#DDA15E;fontColor=#FEFAE0;" edge="1" parent="1" source="sbeRR9fG53_bN65uMO-6-6">
          <mxGeometry width="50" height="50" relative="1" as="geometry">
            <mxPoint x="380" y="260" as="sourcePoint" />
            <mxPoint x="380" y="270" as="targetPoint" />
          </mxGeometry>
        </mxCell>
        <mxCell id="sbeRR9fG53_bN65uMO-6-9" value="BEM VINDO SENHOR JÕAO" style="text;html=1;strokeColor=none;fillColor=none;align=center;verticalAlign=middle;whiteSpace=wrap;rounded=0;fontColor=#FEFAE0;" vertex="1" parent="1">
          <mxGeometry x="350" y="160" width="60" height="30" as="geometry" />
        </mxCell>
        <mxCell id="sbeRR9fG53_bN65uMO-6-14" value="" style="endArrow=classic;html=1;rounded=0;labelBackgroundColor=#283618;strokeColor=#DDA15E;fontColor=#FEFAE0;" edge="1" parent="1">
          <mxGeometry width="50" height="50" relative="1" as="geometry">
            <mxPoint x="379.17" y="320" as="sourcePoint" />
            <mxPoint x="379.17" y="400" as="targetPoint" />
          </mxGeometry>
        </mxCell>
        <mxCell id="sbeRR9fG53_bN65uMO-6-15" value="" style="rhombus;whiteSpace=wrap;html=1;fillColor=#BC6C25;strokeColor=#DDA15E;fontColor=#FEFAE0;" vertex="1" parent="1">
          <mxGeometry x="300" y="400" width="160" height="80" as="geometry" />
        </mxCell>
        <mxCell id="sbeRR9fG53_bN65uMO-6-16" value="peso &amp;gt;=50&amp;nbsp;" style="text;html=1;strokeColor=none;fillColor=none;align=center;verticalAlign=middle;whiteSpace=wrap;rounded=0;fontColor=#FEFAE0;" vertex="1" parent="1">
          <mxGeometry x="320" y="425" width="110" height="30" as="geometry" />
        </mxCell>
        <mxCell id="sbeRR9fG53_bN65uMO-6-17" value="" style="endArrow=classic;html=1;rounded=0;labelBackgroundColor=#283618;strokeColor=#DDA15E;fontColor=#FEFAE0;" edge="1" parent="1" source="sbeRR9fG53_bN65uMO-6-15">
          <mxGeometry width="50" height="50" relative="1" as="geometry">
            <mxPoint x="360" y="640" as="sourcePoint" />
            <mxPoint x="190" y="440" as="targetPoint" />
            <Array as="points" />
          </mxGeometry>
        </mxCell>
        <mxCell id="sbeRR9fG53_bN65uMO-6-19" value="" style="endArrow=classic;html=1;rounded=0;exitX=1;exitY=0.5;exitDx=0;exitDy=0;labelBackgroundColor=#283618;strokeColor=#DDA15E;fontColor=#FEFAE0;" edge="1" parent="1" source="sbeRR9fG53_bN65uMO-6-15">
          <mxGeometry width="50" height="50" relative="1" as="geometry">
            <mxPoint x="360" y="640" as="sourcePoint" />
            <mxPoint x="570" y="440" as="targetPoint" />
          </mxGeometry>
        </mxCell>
        <mxCell id="sbeRR9fG53_bN65uMO-6-20" value="&lt;h1&gt;N&lt;/h1&gt;" style="text;html=1;strokeColor=none;fillColor=none;align=center;verticalAlign=middle;whiteSpace=wrap;rounded=0;fontColor=#FEFAE0;" vertex="1" parent="1">
          <mxGeometry x="460" y="410" width="60" height="30" as="geometry" />
        </mxCell>
        <mxCell id="sbeRR9fG53_bN65uMO-6-22" value="&lt;h1&gt;S&lt;/h1&gt;" style="text;html=1;strokeColor=none;fillColor=none;align=center;verticalAlign=middle;whiteSpace=wrap;rounded=0;fontColor=#FEFAE0;" vertex="1" parent="1">
          <mxGeometry x="250" y="410" width="60" height="30" as="geometry" />
        </mxCell>
        <mxCell id="sbeRR9fG53_bN65uMO-6-23" value="" style="shape=document;whiteSpace=wrap;html=1;boundedLbl=1;fillColor=#BC6C25;strokeColor=#DDA15E;fontColor=#FEFAE0;" vertex="1" parent="1">
          <mxGeometry x="70" y="410" width="120" height="80" as="geometry" />
        </mxCell>
        <mxCell id="sbeRR9fG53_bN65uMO-6-28" value="Text" style="text;html=1;strokeColor=none;fillColor=none;align=center;verticalAlign=middle;whiteSpace=wrap;rounded=0;fontColor=#FEFAE0;" vertex="1" parent="1">
          <mxGeometry x="350" y="285" width="60" height="30" as="geometry" />
        </mxCell>
        <mxCell id="sbeRR9fG53_bN65uMO-6-32" value="" style="rounded=0;whiteSpace=wrap;html=1;fillColor=#BC6C25;strokeColor=#DDA15E;fontColor=#FEFAE0;" vertex="1" parent="1">
          <mxGeometry x="290" y="270" width="190" height="60" as="geometry" />
        </mxCell>
        <mxCell id="sbeRR9fG53_bN65uMO-6-34" value="&lt;div style=&quot;text-align: start;&quot;&gt;&lt;font face=&quot;monospace&quot;&gt;&lt;span style=&quot;caret-color: rgba(0, 0, 0, 0); color: rgba(0, 0, 0, 0); font-size: 0px;&quot;&gt;PE&lt;/span&gt;&lt;/font&gt;&lt;/div&gt;" style="text;html=1;strokeColor=none;fillColor=none;align=center;verticalAlign=middle;whiteSpace=wrap;rounded=0;fontColor=#FEFAE0;" vertex="1" parent="1">
          <mxGeometry x="320" y="287.5" width="120" height="25" as="geometry" />
        </mxCell>
        <mxCell id="sbeRR9fG53_bN65uMO-6-39" value="" style="shape=document;whiteSpace=wrap;html=1;boundedLbl=1;fillColor=#BC6C25;strokeColor=#DDA15E;fontColor=#FEFAE0;" vertex="1" parent="1">
          <mxGeometry x="570" y="400" width="120" height="80" as="geometry" />
        </mxCell>
        <mxCell id="sbeRR9fG53_bN65uMO-6-41" value="Não há multa para a pesca de hoje" style="text;html=1;strokeColor=none;fillColor=none;align=center;verticalAlign=middle;whiteSpace=wrap;rounded=0;fontColor=#FEFAE0;" vertex="1" parent="1">
          <mxGeometry x="100" y="425" width="60" height="30" as="geometry" />
        </mxCell>
        <mxCell id="sbeRR9fG53_bN65uMO-6-43" value="Haverá multa hoje para se pagar&amp;nbsp;" style="text;html=1;strokeColor=none;fillColor=none;align=center;verticalAlign=middle;whiteSpace=wrap;rounded=0;fontColor=#FEFAE0;" vertex="1" parent="1">
          <mxGeometry x="600" y="419" width="60" height="30" as="geometry" />
        </mxCell>
        <mxCell id="sbeRR9fG53_bN65uMO-6-45" value="" style="endArrow=classic;html=1;rounded=0;labelBackgroundColor=#283618;strokeColor=#DDA15E;fontColor=#FEFAE0;" edge="1" parent="1">
          <mxGeometry width="50" height="50" relative="1" as="geometry">
            <mxPoint x="640" y="466" as="sourcePoint" />
            <mxPoint x="640" y="640" as="targetPoint" />
          </mxGeometry>
        </mxCell>
        <mxCell id="sbeRR9fG53_bN65uMO-6-47" value="" style="endArrow=classic;html=1;rounded=0;labelBackgroundColor=#283618;strokeColor=#DDA15E;fontColor=#FEFAE0;" edge="1" parent="1">
          <mxGeometry width="50" height="50" relative="1" as="geometry">
            <mxPoint x="129.29" y="480" as="sourcePoint" />
            <mxPoint x="130" y="640" as="targetPoint" />
          </mxGeometry>
        </mxCell>
        <mxCell id="sbeRR9fG53_bN65uMO-6-48" value="OBRIGADO, ATÉ A PROXIMA!" style="ellipse;whiteSpace=wrap;html=1;fillColor=#BC6C25;strokeColor=#DDA15E;fontColor=#FEFAE0;" vertex="1" parent="1">
          <mxGeometry x="320" y="600" width="120" height="80" as="geometry" />
        </mxCell>
        <mxCell id="sbeRR9fG53_bN65uMO-6-49" value="" style="endArrow=classic;html=1;rounded=0;labelBackgroundColor=#283618;strokeColor=#DDA15E;fontColor=#FEFAE0;" edge="1" parent="1">
          <mxGeometry width="50" height="50" relative="1" as="geometry">
            <mxPoint x="640" y="640" as="sourcePoint" />
            <mxPoint x="450" y="640" as="targetPoint" />
          </mxGeometry>
        </mxCell>
        <mxCell id="sbeRR9fG53_bN65uMO-6-50" value="" style="endArrow=classic;html=1;rounded=0;labelBackgroundColor=#283618;strokeColor=#DDA15E;fontColor=#FEFAE0;" edge="1" parent="1">
          <mxGeometry width="50" height="50" relative="1" as="geometry">
            <mxPoint x="130" y="640" as="sourcePoint" />
            <mxPoint x="310" y="640" as="targetPoint" />
          </mxGeometry>
        </mxCell>
        <mxCell id="sbeRR9fG53_bN65uMO-6-52" value="peso do peixe / limite do peso&amp;nbsp;" style="text;html=1;strokeColor=none;fillColor=none;align=center;verticalAlign=middle;whiteSpace=wrap;rounded=0;fontColor=#FEFAE0;" vertex="1" parent="1">
          <mxGeometry x="-30" y="285" width="830" height="30" as="geometry" />
        </mxCell>
      </root>
    </mxGraphModel>
  </diagram>
</mxfile>
